<svg xmlns="http://www.w3.org/2000/svg" width="50.029" height="50.029" viewBox="0 0 50.029 50.029"><defs><style>.a{fill:#e53f29;}</style></defs><path class="a" d="M48.362,11.827V10.006a1.668,1.668,0,0,0-1.668-1.668h-2.5V7.5a1.661,1.661,0,0,0-.834-1.436V5a2.5,2.5,0,0,0-5,0V6.068A1.662,1.662,0,0,0,37.523,7.5v.834h-2.5V5a5.008,5.008,0,0,0-5-5H20.012a5.008,5.008,0,0,0-5,5V8.338h-2.5V7.5a1.662,1.662,0,0,0-.834-1.436V5a2.5,2.5,0,0,0-5,0V6.068A1.661,1.661,0,0,0,5.837,7.5v.834h-2.5a1.668,1.668,0,0,0-1.668,1.668v1.821A2.5,2.5,0,0,0,0,14.175v2.5a2.5,2.5,0,0,0,1.668,2.348V42.678A2.5,2.5,0,0,0,0,45.026v2.5a2.5,2.5,0,0,0,2.5,2.5H47.528a2.5,2.5,0,0,0,2.5-2.5v-2.5a2.5,2.5,0,0,0-1.668-2.348V19.024a2.5,2.5,0,0,0,1.668-2.348v-2.5a2.5,2.5,0,0,0-1.668-2.348Zm-1.668-1.821v1.668h-2.5V10.006Zm-7.5-2.5h3.335v4.169H39.19ZM40.024,5a.834.834,0,0,1,1.668,0v.834H40.024ZM16.677,5a3.335,3.335,0,0,1,3.335-3.335H30.018A3.335,3.335,0,0,1,33.353,5V8.338H31.686v-2.5a2.5,2.5,0,0,0-2.5-2.5H20.846a2.5,2.5,0,0,0-2.5,2.5v2.5H16.677ZM30.018,8.338H20.012v-2.5A.834.834,0,0,1,20.846,5h8.338a.834.834,0,0,1,.834.834ZM15.843,10.006H37.523v1.668H12.508V10.006ZM7.505,7.5H10.84v4.169H7.505ZM8.339,5a.834.834,0,0,1,1.668,0v.834H8.339Zm-5,5h2.5v1.668h-2.5ZM46.695,42.525H3.336V19.178H46.695Zm1.668,5a.834.834,0,0,1-.834.834H2.5a.834.834,0,0,1-.834-.834v-2.5a.834.834,0,0,1,.834-.834H47.528a.834.834,0,0,1,.834.834Zm0-30.851a.834.834,0,0,1-.834.834H2.5a.834.834,0,0,1-.834-.834v-2.5a.834.834,0,0,1,.834-.834H47.528a.834.834,0,0,1,.834.834Zm0,0" transform="translate(-0.001 0)"/><path class="a" d="M61.4,229.372h.834v.834a1.668,1.668,0,0,0,1.668,1.668h1.668a1.668,1.668,0,0,0,1.668-1.668v-.834h.834A1.668,1.668,0,0,0,69.74,227.7v-1.668a1.668,1.668,0,0,0-1.668-1.668h-.834v-.834a1.668,1.668,0,0,0-1.668-1.668H63.9a1.668,1.668,0,0,0-1.668,1.668v.834H61.4a1.668,1.668,0,0,0-1.668,1.668V227.7A1.668,1.668,0,0,0,61.4,229.372Zm0-3.335H63.07a.834.834,0,0,0,.834-.834v-1.668h1.668V225.2a.834.834,0,0,0,.834.834h1.668V227.7H66.4a.834.834,0,0,0-.834.834v1.668H63.9v-1.668a.834.834,0,0,0-.834-.834H61.4Zm0,0" transform="translate(-53.898 -200.188)"/><path class="a" d="M351.535,252.468h6.671a1.668,1.668,0,0,0,1.668-1.668v-1.668a1.668,1.668,0,0,0-1.668-1.668h-6.671a1.668,1.668,0,0,0-1.668,1.668V250.8A1.668,1.668,0,0,0,351.535,252.468Zm0-3.335h6.671V250.8h-6.671Zm0,0" transform="translate(-315.681 -223.284)"/><path class="a" d="M200.869,240.4h2.726l-2.136,6.407a.834.834,0,0,0,1.432.8l7.2-8.639a1.668,1.668,0,0,0-1.28-2.735h-2.186l1.107-3.691a1.668,1.668,0,0,0-1.6-2.146H202.87a1.658,1.658,0,0,0-1.6,1.189l-2,6.67a1.668,1.668,0,0,0,1.6,2.146Zm2-8.339h3.262l-1.107,3.691a1.667,1.667,0,0,0,1.6,2.146h2.186l-4.369,5.244,1.1-3.313a.834.834,0,0,0-.791-1.1h-3.882Zm0,0" transform="translate(-179.736 -207.885)"/><path class="a" d="M52.033,402.734H53.7a.834.834,0,0,0,0-1.668H52.033a.834.834,0,1,0,0,1.668Zm0,0" transform="translate(-46.196 -361.877)"/><path class="a" d="M102.4,401.9a.834.834,0,0,0,.834.834h5.837a.834.834,0,0,0,0-1.668h-5.837A.834.834,0,0,0,102.4,401.9Zm0,0" transform="translate(-92.392 -361.877)"/></svg>