<svg xmlns="http://www.w3.org/2000/svg" width="50.007" height="50.006" viewBox="0 0 50.007 50.006"><defs><style>.a{fill:#e53f29;}</style></defs><g transform="translate(34.165 30.24)"><path class="a" d="M339.978,299.467a.808.808,0,0,0-1.065.413.845.845,0,0,0-.032.087,11.905,11.905,0,0,1-.533,1.212.809.809,0,0,0,1.446.727h0a13.8,13.8,0,0,0,.6-1.374A.808.808,0,0,0,339.978,299.467Z" transform="translate(-338.26 -299.399)"/></g><g transform="translate(33.98 8.078)"><path class="a" d="M346.539,91.427c-.006-.019-.012-.038-.019-.056a21.93,21.93,0,0,0-8.88-11.288.808.808,0,0,0-.873,1.357A20.313,20.313,0,0,1,344.993,91.9a.808.808,0,1,0,1.546-.469Z" transform="translate(-336.431 -79.977)"/></g><g transform="translate(29.548 5.919)"><path class="a" d="M295.122,59.227v.008c-.509-.218-1.018-.42-1.527-.6a.808.808,0,0,0-.525,1.527c.469.162.945.347,1.414.549a.809.809,0,0,0,.638-1.487Z" transform="translate(-292.552 -58.603)"/></g><g transform="translate(9.696 12.834)"><path class="a" d="M109.729,127.063a13.736,13.736,0,1,0,10.063,23.09.808.808,0,0,0-1.172-1.1,12.12,12.12,0,1,1,3.232-8.258v.9a.81.81,0,0,0,1.616.121V140.8A13.736,13.736,0,0,0,109.729,127.063Z" transform="translate(-95.996 -127.063)"/></g><g transform="translate(19.392 22.526)"><path class="a" d="M196.036,223.029a4.04,4.04,0,1,0,4.04,4.04A4.04,4.04,0,0,0,196.036,223.029Zm0,6.666a2.626,2.626,0,1,1,2.626-2.626A2.626,2.626,0,0,1,196.036,229.7Z" transform="translate(-191.996 -223.029)"/></g><g transform="translate(21.816 17.678)"><ellipse class="a" cx="1.616" cy="1.616" rx="1.616" ry="1.616"/></g><g transform="translate(21.816 32.223)"><ellipse class="a" cx="1.616" cy="1.616" rx="1.616" ry="1.616"/></g><g transform="translate(14.544 24.95)"><ellipse class="a" cx="1.616" cy="1.616" rx="1.616" ry="1.616"/></g><g transform="translate(29.088 24.95)"><ellipse class="a" cx="1.616" cy="1.616" rx="1.616" ry="1.616"/></g><g transform="translate(0 0)"><path class="a" d="M50,24.2A26.592,26.592,0,0,0,25.784.008a2.425,2.425,0,0,0-2.513,3.087v.048a23.433,23.433,0,1,0,23.594,23.57h.048A2.425,2.425,0,0,0,50,24.2Zm-4.751,2.367A21.816,21.816,0,1,1,23.432,4.751h.315l1.228,4.3a4.04,4.04,0,0,0,2.707,2.771,15.449,15.449,0,0,1,10.5,10.5,4.04,4.04,0,0,0,2.771,2.707l4.291,1.22ZM48.1,25.016a.808.808,0,0,1-.751.162l-1-.283h-.121l-4.848-1.382A2.424,2.424,0,0,1,39.714,21.9,17.073,17.073,0,0,0,28.135,10.278a2.424,2.424,0,0,1-1.616-1.665l-1.7-5.963a.808.808,0,0,1,.162-.751.759.759,0,0,1,.59-.283h.065A24.976,24.976,0,0,1,48.384,24.361.759.759,0,0,1,48.1,25.016Z" transform="translate(0 -0.001)"/></g><g transform="translate(4.04 24.95)"><path class="a" d="M42.42,247.029H40.8a.808.808,0,0,0,0,1.616H42.42a.808.808,0,1,0,0-1.616Z" transform="translate(-39.996 -247.029)"/></g><g transform="translate(22.624 41.919)"><path class="a" d="M224.8,415.029a.808.808,0,0,0-.808.808v1.616a.808.808,0,0,0,1.616,0v-1.616A.808.808,0,0,0,224.8,415.029Z" transform="translate(-223.996 -415.029)"/></g><g transform="translate(17.797 6.977)"><path class="a" d="M178.226,71.283l-.428-1.576a.808.808,0,1,0-1.574.367c0,.018.009.036.014.053l.428,1.576a.808.808,0,0,0,1.559-.42Z" transform="translate(-176.202 -69.082)"/></g><g transform="translate(27.023 41.347)"><path class="a" d="M269.547,411.559l-.42-1.616a.808.808,0,0,0-1.56.42l.428,1.576a.808.808,0,0,0,1.551-.38Z" transform="translate(-267.546 -409.372)"/></g><g transform="translate(13.345 8.884)"><path class="a" d="M134.457,89.791c-.01-.02-.022-.04-.034-.059l-.808-1.4a.808.808,0,0,0-1.4.808l.808,1.4a.808.808,0,1,0,1.432-.749Z" transform="translate(-132.125 -87.96)"/></g><g transform="translate(31.129 39.678)"><path class="a" d="M310.536,394.671c-.01-.02-.022-.04-.034-.059l-.808-1.4a.808.808,0,0,0-1.4.808l.808,1.4a.808.808,0,0,0,1.432-.749Z" transform="translate(-308.204 -392.84)"/></g><g transform="translate(9.455 11.781)"><path class="a" d="M96.154,118.056l-1.139-1.172a.823.823,0,0,0-1.164,1.164l1.164,1.147a.808.808,0,0,0,1.139-1.139Z" transform="translate(-93.61 -116.643)"/></g><g transform="translate(34.671 36.989)"><path class="a" d="M345.769,367.567l-1.164-1.147a.808.808,0,0,0-1.139,1.139l1.139,1.172a.823.823,0,0,0,1.164-1.164Z" transform="translate(-343.272 -366.225)"/></g><g transform="translate(6.499 15.637)"><path class="a" d="M66.983,155.754l-1.4-.808a.808.808,0,0,0-.867,1.364c.019.012.039.024.059.034l1.4.808a.808.808,0,0,0,.808-1.4Z" transform="translate(-64.343 -154.819)"/></g><g transform="translate(4.54 20.106)"><path class="a" d="M47.685,199.548l-1.616-.42a.808.808,0,1,0-.388,1.551l1.559.42a.808.808,0,0,0,.444-1.551Z" transform="translate(-44.954 -199.067)"/></g></svg>