<svg xmlns="http://www.w3.org/2000/svg" width="50.013" height="50.013" viewBox="0 0 50.013 50.013"><defs><style>.a{fill:#e53f29;}</style></defs><path class="a" d="M25.006,0A25.006,25.006,0,1,0,50.013,25.006,25.006,25.006,0,0,0,25.006,0Zm0,48.346A23.339,23.339,0,1,1,48.346,25.006,23.339,23.339,0,0,1,25.006,48.346Z"/><g transform="translate(3.334 3.334)"><path class="a" d="M53.672,32A21.672,21.672,0,1,0,75.345,53.672,21.672,21.672,0,0,0,53.672,32Zm0,41.677A20.005,20.005,0,1,1,73.677,53.672,20.005,20.005,0,0,1,53.672,73.677Z" transform="translate(-32 -32)"/></g><g transform="translate(5.801 24.132)"><g transform="translate(0 0)"><rect class="a" width="3.239" height="1.619"/></g></g><g transform="translate(40.885 24.132)"><g transform="translate(0 0)"><rect class="a" width="3.239" height="1.619"/></g></g><g transform="translate(7.985 32.205)"><g transform="translate(0 0)"><rect class="a" width="3.334" height="1.667" transform="translate(0 1.667) rotate(-29.993)"/></g></g><g transform="translate(38.306 14.699)"><g transform="translate(0 0)"><rect class="a" width="3.334" height="1.667" transform="translate(0 1.667) rotate(-29.993)"/></g></g><g transform="translate(7.986 14.698)"><g transform="translate(0 0)"><rect class="a" width="1.667" height="3.334" transform="translate(0 1.444) rotate(-60.007)"/></g></g><g transform="translate(38.306 32.199)"><g transform="translate(0 0)"><rect class="a" width="1.667" height="3.334" transform="translate(0 1.444) rotate(-60.007)"/></g></g><g transform="translate(14.696 7.987)"><g transform="translate(0 0)"><rect class="a" width="1.667" height="3.334" transform="translate(0 0.833) rotate(-29.993)"/></g></g><g transform="translate(24.153 5.78)"><g transform="translate(0 0)"><rect class="a" width="1.619" height="3.508"/></g></g><g transform="translate(32.203 7.985)"><g transform="translate(0 0)"><rect class="a" width="3.334" height="1.667" transform="translate(0 2.888) rotate(-60.007)"/></g></g><g transform="translate(6.272 19.239)"><g transform="translate(0 0)"><rect class="a" width="1.667" height="2.501" transform="matrix(0.259, -0.966, 0.966, 0.259, 0, 1.61)"/></g></g><g transform="translate(40.888 28.514)"><g transform="translate(0 0)"><rect class="a" width="1.667" height="2.501" transform="matrix(0.259, -0.966, 0.966, 0.259, 0, 1.61)"/></g></g><g transform="translate(10.861 10.86)"><g transform="translate(0 0)"><rect class="a" width="1.667" height="2.501" transform="translate(0 1.179) rotate(-45)"/></g></g><g transform="translate(19.236 6.273)"><g transform="translate(0 0)"><rect class="a" width="1.667" height="2.501" transform="matrix(0.966, -0.259, 0.259, 0.966, 0, 0.431)"/></g></g><g transform="translate(28.515 6.277)"><g transform="translate(0 0)"><rect class="a" width="2.501" height="1.667" transform="matrix(0.259, -0.966, 0.966, 0.259, 0, 2.415)"/></g></g><g transform="translate(36.205 10.863)"><g transform="translate(0 0)"><rect class="a" width="2.501" height="1.667" transform="translate(0 1.768) rotate(-45)"/></g></g><g transform="translate(40.898 19.239)"><g transform="translate(0 0)"><rect class="a" width="2.501" height="1.667" transform="matrix(0.966, -0.259, 0.259, 0.966, 0, 0.647)"/></g></g><g transform="translate(6.272 28.516)"><g transform="translate(0 0)"><rect class="a" width="2.501" height="1.667" transform="matrix(0.966, -0.259, 0.259, 0.966, 0, 0.647)"/></g></g><g transform="translate(10.838 10.84)"><path class="a" d="M121.724,104.487a14.17,14.17,0,0,0-15.811,20.8.834.834,0,0,0,1.443-.834,12.5,12.5,0,1,1,22.94-3.124.834.834,0,0,0,1.615.417v0A14.17,14.17,0,0,0,121.724,104.487Z" transform="translate(-104.019 -104.035)"/></g><g transform="translate(21.672 21.675)"><path class="a" d="M223.527,217.384l-9.169-7.5a.771.771,0,0,0-.078-.042,3.325,3.325,0,1,0-3.151,4.835l11.586,4.139a.822.822,0,0,0,.283.049.834.834,0,0,0,.528-1.479Zm-12.2-4.356A1.667,1.667,0,1,1,213,211.361,1.667,1.667,0,0,1,211.33,213.028Zm2.271.76a3.314,3.314,0,0,0,.945-1.6l4.2,3.433Z" transform="translate(-207.995 -208.03)"/></g><g transform="translate(17.505 33.342)"><path class="a" d="M178.836,320h-6.668a4.168,4.168,0,1,0,0,8.336h6.668a4.168,4.168,0,0,0,0-8.336Zm0,6.668h-6.668a2.5,2.5,0,1,1,0-5h6.668a2.5,2.5,0,1,1,0,5Z" transform="translate(-168 -320)"/></g><g transform="translate(20.839 36.676)"><path class="a" d="M202.5,352h-1.667a.834.834,0,1,0,0,1.667H202.5a.834.834,0,1,0,0-1.667Z" transform="translate(-200 -352)"/></g><g transform="translate(25.84 36.676)"><path class="a" d="M250.5,352h-1.667a.834.834,0,1,0,0,1.667H250.5a.834.834,0,1,0,0-1.667Z" transform="translate(-248 -352)"/></g></svg>