<svg xmlns="http://www.w3.org/2000/svg" width="50.012" height="34.29" viewBox="0 0 50.012 34.29"><defs><style>.a{fill:#e53f29;}</style></defs><path class="a" d="M22.52,8.128a2.528,2.528,0,0,0-2.377,1.91L7.569,4.2A5.506,5.506,0,0,0,1.212,5.467l-.486.508a2.666,2.666,0,0,0,.479,4.031,2.249,2.249,0,0,0,2.859-.473l.117-.126a.8.8,0,0,1,.667-.265.823.823,0,0,1,.614.389L15.838,26.009a4.084,4.084,0,0,0,3.443,1.971H37.524a2.437,2.437,0,0,0,1.878-.912l10.01-12.029a2.881,2.881,0,0,0,.453-2.733l-2.5-7.218A2.6,2.6,0,0,0,45.893,3.5a2.346,2.346,0,0,0-2.029.142l-9.777,4.49H30.856V5.421a2.61,2.61,0,0,0,2.5-2.707,2.61,2.61,0,0,0-2.5-2.707h-5a2.61,2.61,0,0,0-2.5,2.707,2.61,2.61,0,0,0,2.5,2.707V8.128Zm11.736,1.8a.778.778,0,0,0,.325-.071L44.55,5.287c.026-.013.052-.025.077-.04a.774.774,0,0,1,.689-.055.867.867,0,0,1,.488.528l2.5,7.218a.961.961,0,0,1-.139.9L38.159,25.864a.813.813,0,0,1-.635.311H19.281a2.454,2.454,0,0,1-2.066-1.183L6.836,8.51A2.472,2.472,0,0,0,5,7.345a2.394,2.394,0,0,0-2,.786l-.117.126a.688.688,0,0,1-.849.181.767.767,0,0,1-.149-1.167l.483-.506a3.944,3.944,0,0,1,4.543-.9l13.611,6.316.328.073a.8.8,0,0,0,.316-.069q.135-.092.266-.191a.888.888,0,0,0,.15-.235.6.6,0,0,0,.032-.051.931.931,0,0,0,.038-.194,1.072,1.072,0,0,0,.032-.16v-.516a.87.87,0,0,1,.833-.9ZM25.021,2.715a.87.87,0,0,1,.833-.9h5a.87.87,0,0,1,.833.9.87.87,0,0,1-.833.9h-5A.87.87,0,0,1,25.021,2.715Zm2.5,2.707h1.667V8.128H27.521Zm0,0" transform="translate(-0.014 -0.007)"/><path class="a" d="M376.282,89.018a1.179,1.179,0,0,0,1.377-.356l7.2-8.617a1.44,1.44,0,0,0,.243-1.383l-1.237-3.579a1.315,1.315,0,0,0-.664-.762,1.164,1.164,0,0,0-.967-.021l-5.961,2.575a1.351,1.351,0,0,0-.791,1.259v9.621A1.347,1.347,0,0,0,376.282,89.018Zm.866-10.578,5.3-2.292,1,2.888-6.3,7.548Zm0,0" transform="translate(-338.805 -66.36)"/><path class="a" d="M5.837,187.158A5.487,5.487,0,0,0,10,185.35a6.455,6.455,0,0,0,1.67-4.508c0-2.943-3.3-7.712-4.575-9.3a1.63,1.63,0,0,0-2.518,0C3.3,173.13,0,177.9,0,180.842a6.455,6.455,0,0,0,1.67,4.508,5.488,5.488,0,0,0,4.165,1.808Zm0-14.437c1.68,2.1,4.167,6.136,4.167,8.121a4.562,4.562,0,0,1-1.178,3.236,3.871,3.871,0,0,1-2.989,1.275,3.872,3.872,0,0,1-2.989-1.275,4.562,4.562,0,0,1-1.178-3.236C1.669,178.857,4.156,174.822,5.837,172.721Zm0,0" transform="translate(-0.001 -152.87)"/><path fill="currentColor" class="a" d="M240.617,110.941h-.834a.905.905,0,0,0,0,1.8h.834a.905.905,0,0,0,0-1.8Zm0,0" transform="translate(-215.61 -99.211)"/><path class="a" d="M281.613,111.844a.87.87,0,0,0,.834.9h3.334a.905.905,0,0,0,0-1.8h-3.334A.87.87,0,0,0,281.613,111.844Zm0,0" transform="translate(-254.106 -99.212)"/><path class="a" d="M30.833,244.273a.786.786,0,0,0,.817-.182.949.949,0,0,0,.264-.857.884.884,0,0,0-.554-.676c-.633-.228-.732-.534-.764-.632a2.465,2.465,0,0,1,.362-1.624.949.949,0,0,0-.233-1.251.8.8,0,0,0-1.156.252,4.31,4.31,0,0,0-.552,3.2A2.734,2.734,0,0,0,30.833,244.273Zm0,0" transform="translate(-26.094 -213.641)"/></svg>