<svg xmlns="http://www.w3.org/2000/svg" width="49.99" height="49.951" viewBox="0 0 49.99 49.951"><defs><style>.a{fill:none;}.b{fill:#e53f29;}</style></defs><g transform="translate(568 -1316)"><path class="a" d="M12.1,0A12.1,12.1,0,1,1,0,12.1H0A12.078,12.078,0,0,1,12.1,0Z" transform="translate(-563.712 1337.439)"/><path class="b" d="M12.1,2A10.2,10.2,0,0,0,2,12.1,10.1,10.1,0,1,0,12.1,2m0-2A12.1,12.1,0,1,1,0,12.1,12.078,12.078,0,0,1,12.1,0Z" transform="translate(-563.712 1337.439)"/><path class="a" d="M16.4,0A16.4,16.4,0,1,1,0,16.4H0A16.474,16.474,0,0,1,16.4,0Z" transform="translate(-568 1333.151)"/><path class="b" d="M16.4,2A14.635,14.635,0,0,0,6.2,6.2,14.048,14.048,0,0,0,2,16.4a14.4,14.4,0,1,0,28.8,0A14.213,14.213,0,0,0,26.6,6.2,14.048,14.048,0,0,0,16.4,2m0-2A16.4,16.4,0,1,1,0,16.4,16.41,16.41,0,0,1,16.4,0Z" transform="translate(-568 1333.151)"/><path class="a" d="M12.1,0A12.1,12.1,0,1,1,0,12.1H0A12.078,12.078,0,0,1,12.1,0Z" transform="translate(-563.712 1337.439)"/><path class="b" d="M12.1,2A10.2,10.2,0,0,0,2,12.1,10.1,10.1,0,1,0,12.1,2m0-2A12.1,12.1,0,1,1,0,12.1,12.078,12.078,0,0,1,12.1,0Z" transform="translate(-563.712 1337.439)"/><path class="a" d="M3.6,0A3.585,3.585,0,0,1,7.2,3.6,3.564,3.564,0,0,1,3.6,7.1,3.631,3.631,0,0,1,0,3.6H0A3.585,3.585,0,0,1,3.6,0Z" transform="translate(-555.137 1346.015)"/><path class="b" d="M3.6,2A1.58,1.58,0,0,0,2,3.6,1.58,1.58,0,0,0,3.6,5.2,1.58,1.58,0,0,0,5.2,3.6,1.645,1.645,0,0,0,3.6,2m0-2A3.585,3.585,0,0,1,7.2,3.6,3.564,3.564,0,0,1,3.6,7.1,3.631,3.631,0,0,1,0,3.6,3.65,3.65,0,0,1,3.6,0Z" transform="translate(-555.137 1346.015)"/><path class="a" d="M5.7,0a5.7,5.7,0,0,1,5.7,5.7,5.763,5.763,0,0,1-5.7,5.7A5.7,5.7,0,0,1,0,5.7H0A5.763,5.763,0,0,1,5.7,0Z" transform="translate(-529.41 1334.581)"/><path class="b" d="M5.7,2A3.757,3.757,0,0,0,2,5.7,3.757,3.757,0,0,0,5.7,9.4,3.757,3.757,0,0,0,9.4,5.7,3.691,3.691,0,0,0,5.7,2m0-2a5.7,5.7,0,0,1,5.7,5.7,5.763,5.763,0,0,1-5.7,5.7A5.7,5.7,0,0,1,5.7,0Z" transform="translate(-529.41 1334.581)"/><path class="a" d="M2.9,0A2.9,2.9,0,0,1,5.8,2.9,2.881,2.881,0,0,1,2.9,5.7,2.951,2.951,0,0,1,0,2.9,2.9,2.9,0,0,1,2.9,0Z" transform="translate(-526.551 1337.439)"/><path class="b" d="M2.9,2a.9.9,0,1,0,.9.9A.967.967,0,0,0,2.9,2m0-2A2.9,2.9,0,0,1,5.8,2.9,2.881,2.881,0,0,1,2.9,5.7,2.951,2.951,0,0,1,0,2.9,2.968,2.968,0,0,1,2.9,0Z" transform="translate(-526.551 1337.439)"/><path class="a" d="M7.9,0A7.9,7.9,0,1,1,0,7.9H0A7.853,7.853,0,0,1,7.9,0Z" transform="translate(-540.129 1316)"/><path class="b" d="M7.9,2A5.848,5.848,0,0,0,2,7.9a5.848,5.848,0,0,0,5.9,5.9,5.848,5.848,0,0,0,5.9-5.9A5.911,5.911,0,0,0,7.9,2m0-2A7.9,7.9,0,1,1,0,7.9,7.917,7.917,0,0,1,7.9,0Z" transform="translate(-540.129 1316)"/><path class="a" d="M5,0a4.951,4.951,0,0,1,5,5,4.951,4.951,0,0,1-5,5A4.951,4.951,0,0,1,0,5,4.951,4.951,0,0,1,5,0Z" transform="translate(-537.271 1318.859)"/><path class="b" d="M5,2A2.946,2.946,0,0,0,2,5,2.946,2.946,0,0,0,5,8,2.946,2.946,0,0,0,8,5,2.946,2.946,0,0,0,5,2M5,0a4.951,4.951,0,0,1,5,5,4.951,4.951,0,0,1-5,5A4.951,4.951,0,0,1,0,5,4.951,4.951,0,0,1,5,0Z" transform="translate(-537.271 1318.859)"/><path class="b" d="M-532.3,1321.7a1.367,1.367,0,0,1,1.4,1.4,1.367,1.367,0,0,1-1.4,1.4,1.367,1.367,0,0,1-1.4-1.4h0A1.43,1.43,0,0,1-532.3,1321.7Z"/><path class="b" d="M-551.6,1341.7a.684.684,0,0,1,.7.7.684.684,0,0,1-.7.7.684.684,0,0,1-.7-.7h0A.684.684,0,0,1-551.6,1341.7Z"/><path class="b" d="M-544.4,1348.9a.684.684,0,0,1,.7.7.684.684,0,0,1-.7.7.684.684,0,0,1-.7-.7h0A.684.684,0,0,1-544.4,1348.9Z"/><path class="b" d="M-558.7,1348.9a.684.684,0,0,1,.7.7.684.684,0,0,1-.7.7.684.684,0,0,1-.7-.7h0A.684.684,0,0,1-558.7,1348.9Z"/><path class="b" d="M-551.6,1356a.684.684,0,0,1,.7.7.684.684,0,0,1-.7.7.684.684,0,0,1-.7-.7h0A.684.684,0,0,1-551.6,1356Z"/><path class="b" d="M-556.6,1343.9a.684.684,0,0,1,.7.7.684.684,0,0,1-.7.7.684.684,0,0,1-.7-.7h0A.683.683,0,0,1-556.6,1343.9Z"/><path class="b" d="M-546.6,1343.9a.684.684,0,0,1,.7.7.684.684,0,0,1-.7.7.684.684,0,0,1-.7-.7h0A.683.683,0,0,1-546.6,1343.9Z"/><path class="b" d="M-546.6,1353.9a.684.684,0,0,1,.7.7.684.684,0,0,1-.7.7.684.684,0,0,1-.7-.7h0A.683.683,0,0,1-546.6,1353.9Z"/><path class="b" d="M-556.6,1353.9a.684.684,0,0,1,.7.7.684.684,0,0,1-.7.7.684.684,0,0,1-.7-.7h0A.683.683,0,0,1-556.6,1353.9Z"/><rect class="b" width="26.4" height="2" transform="matrix(0.793, -0.609, 0.609, 0.793, -559.301, 1335.073)"/><rect class="b" width="21" height="2" transform="matrix(0.793, -0.609, 0.609, 0.793, -539.051, 1356.656)"/><rect class="b" width="14.8" height="2" transform="matrix(0.793, -0.609, 0.609, 0.793, -551.198, 1333.244)"/><rect class="b" width="12.2" height="2" transform="matrix(0.793, -0.609, 0.609, 0.793, -536.906, 1350.512)"/><rect class="b" width="2" height="7.3" transform="matrix(0.899, -0.437, 0.437, 0.899, -528.496, 1329.368)"/><rect class="b" width="2" height="15.9" transform="translate(-526.102 1324.782) rotate(-22.935)"/></g></svg>