<svg xmlns="http://www.w3.org/2000/svg" width="50.016" height="50.03" viewBox="0 0 50.016 50.03"><defs><style>.a{fill:#e53f29;}</style></defs><path class="a" d="M31.545.853A25.013,25.013,0,1,0,46.729,12.506,25.008,25.008,0,0,0,31.545.853Zm16.073,30.2a23.343,23.343,0,1,1-2.333-17.712,23.342,23.342,0,0,1,2.333,17.712Zm0,0" transform="translate(-0.063 0)"/><path class="a" d="M61.251,54.68a21.128,21.128,0,0,1,2-1,.834.834,0,0,0-.667-1.529,22.949,22.949,0,0,0-2.163,1.082,21.451,21.451,0,0,0-9.1,10.268.834.834,0,1,0,1.535.651,19.783,19.783,0,0,1,8.4-9.471Zm0,0" transform="translate(-46.251 -46.993)"/><path class="a" d="M324.19,331.253a.834.834,0,0,0-1.094.442,19.787,19.787,0,0,1-8.4,9.473,20.419,20.419,0,0,1-4.149,1.8.834.834,0,0,0,.248,1.631.8.8,0,0,0,.245-.037,22.19,22.19,0,0,0,4.49-1.95,21.453,21.453,0,0,0,9.1-10.268.833.833,0,0,0-.442-1.093Zm0,0" transform="translate(-279.683 -298.833)"/><path class="a" d="M119.868,122.238c.011-.008.025-.008.037-.016a.711.711,0,0,0,.055-.058,15.868,15.868,0,0,0,5.612-14.657c0-.01-.006-.018-.006-.027a15.589,15.589,0,0,0-5.607-9.794c-.021-.018-.032-.042-.055-.058s-.02-.006-.029-.012a15.864,15.864,0,0,0-15.581-2.474c-.008,0-.018,0-.027.007l-.011.008A14.463,14.463,0,0,0,100,97.613c-.011.008-.025.008-.037.016a.784.784,0,0,0-.055.058A15.868,15.868,0,0,0,94.3,112.343c0,.01.006.018.006.027a15.751,15.751,0,0,0,25.567,9.867Zm-6.638-8.448c-.023.013-.046.027-.068.042l-.712.417-1.457.842a.822.822,0,0,0-.4.63,5.941,5.941,0,0,1-1.626-.053,1.667,1.667,0,0,0-.756-.96l-1.557-.9a1.668,1.668,0,0,0-1.215-.172,5.174,5.174,0,0,1-.961-1.664,1.659,1.659,0,0,0,.454-1.146v-1.8a1.652,1.652,0,0,0-.454-1.14,5.9,5.9,0,0,1,.769-1.422.783.783,0,0,0,.744-.032l.618-.358c.009-.005.02-.006.029-.012a.731.731,0,0,0,.068-.042l.712-.417,1.457-.842a.824.824,0,0,0,.4-.63,5.936,5.936,0,0,1,1.62.052,1.668,1.668,0,0,0,.764.96l1.552.9a1.669,1.669,0,0,0,1.222.175,5.884,5.884,0,0,1,.558.788,5.651,5.651,0,0,1,.4.873,1.657,1.657,0,0,0-.454,1.146v1.8a1.652,1.652,0,0,0,.453,1.14,5.894,5.894,0,0,1-.77,1.424.819.819,0,0,0-.742.031l-.609.353c-.013.007-.026.01-.039.017Zm-11.587,7.478,4.179-6.018,1.557.9-3.123,6.625ZM95.866,108.4l7.4.62v1.8l-7.408.617a14.17,14.17,0,0,1,.008-3.042Zm22.425-9.92-4.246,6.116-1.557-.9,3.173-6.728a14.12,14.12,0,0,1,2.633,1.516ZM124,111.442l-7.4-.617v-1.8l7.408-.617a14.146,14.146,0,0,1-.008,3.042Zm-4.422,8.851-3.882-5.586a7.537,7.537,0,0,0,1.257-2.173l6.769.565A14.152,14.152,0,0,1,119.579,120.293Zm2.628-17.454a14.133,14.133,0,0,1,1.538,3.918l-6.79.566a7.289,7.289,0,0,0-.519-1.15,7.511,7.511,0,0,0-.735-1.033l3.885-5.585a14.132,14.132,0,0,1,2.621,3.284Zm-12.3-7.086a14.26,14.26,0,0,1,4.183.635l-2.9,6.156a7.539,7.539,0,0,0-2.517-.008l-2.9-6.156a14.1,14.1,0,0,1,4.138-.628Zm-7.062,1.9a14.117,14.117,0,0,1,1.356-.681l3.168,6.732-.8.464-.75.432-4.251-6.115A14.194,14.194,0,0,1,102.848,97.652Zm-2.56,1.905,3.881,5.59a7.543,7.543,0,0,0-1.256,2.173l-6.769-.565A14.152,14.152,0,0,1,100.288,99.557ZM97.66,117.011a14.135,14.135,0,0,1-1.538-3.918l6.79-.566a7.3,7.3,0,0,0,.524,1.147,7.474,7.474,0,0,0,.733,1.03l-3.886,5.595A14.137,14.137,0,0,1,97.66,117.011Zm8.118,6.441,2.9-6.149a7.586,7.586,0,0,0,1.284.123,7.446,7.446,0,0,0,1.235-.115l2.9,6.151A14.15,14.15,0,0,1,105.778,123.452Zm9.887-.568-3.168-6.736.8-.464.75-.432,4.251,6.115a13.742,13.742,0,0,1-2.628,1.518Zm0,0" transform="translate(-84.925 -84.915)"/><path class="a" d="M226.123,222a3.334,3.334,0,1,0,2.025,1.553A3.334,3.334,0,0,0,226.123,222Zm.75,3.652a1.667,1.667,0,1,1-1.613-2.1,1.7,1.7,0,0,1,.434.058,1.667,1.667,0,0,1,1.179,2.042Zm0,0" transform="translate(-200.252 -200.208)"/><path class="a" d="M189.456,43.513a.834.834,0,1,1-.834-.834A.834.834,0,0,1,189.456,43.513Zm0,0" transform="translate(-169.45 -38.51)"/></svg>